<svg xmlns="http://www.w3.org/2000/svg" width="375" height="93" fill="none" viewBox="0 0 375 93">
    <path fill="#D4D4D4" d="M259.6 50.664c-1.72 1.72-24.751.145-26.543 1.22-11.099 7.989-17.448 10.885-30.088 12.118-10.113.986-34.017 1.644-37.614 1.85v26.212H375v-36c-4.36-.703-15.445-2.75-24.905-5.305 0 0-5.374-3.225-7.524-4.3-1.72-.86-3.584-4.658-4.3-6.45-1.659-3.244-9.038-10.788-10.271-11.945l-39.5-.5c-3.225 1.075-12.85 12.925-15 14-2.15 1.075-3.225 0-6.45 1.075s-5.3 5.875-7.45 8.025z"/>
    <path fill="#F0F0F0" d="M230.968 17.577c-.043-.279-.065-.565-.065-.856 0-3.124 2.533-5.656 5.656-5.656 2.714 0 4.981 1.91 5.53 4.46.203-.02.408-.032.616-.032 3.26 0 5.903 2.643 5.903 5.903 0 3.198-2.544 5.802-5.719 5.899-.059.003-.12.005-.18.005h-12.627l-.163.002c-.055 0-.11 0-.164-.002h-.326c-.844 0-1.616-.304-2.215-.808-1.334-.88-2.214-2.39-2.214-4.108 0-2.717 2.202-4.919 4.919-4.919.36 0 .711.039 1.049.112zM101.968 48.577c-.043-.279-.065-.565-.065-.856 0-3.124 2.533-5.656 5.656-5.656 2.714 0 4.981 1.91 5.53 4.46.203-.02.408-.032.616-.032 3.26 0 5.903 2.643 5.903 5.903 0 3.198-2.544 5.802-5.719 5.899-.059.003-.12.005-.18.005h-12.627l-.163.002c-.055 0-.11 0-.164-.002h-.326c-.844 0-1.617-.304-2.215-.807C96.88 56.612 96 55.1 96 53.383c0-2.716 2.202-4.918 4.919-4.918.36 0 .711.039 1.049.112zM352.968 32.577c-.043-.279-.065-.565-.065-.856 0-3.124 2.533-5.657 5.656-5.657 2.714 0 4.981 1.912 5.53 4.461.203-.02.408-.032.616-.032 3.26 0 5.903 2.643 5.903 5.903 0 3.198-2.544 5.802-5.719 5.899-.059.003-.12.005-.18.005h-12.627l-.163.002c-.055 0-.11 0-.164-.002h-.326c-.844 0-1.616-.304-2.215-.807-1.334-.88-2.214-2.392-2.214-4.11 0-2.716 2.202-4.918 4.919-4.918.36 0 .711.039 1.049.112z"/>
    <path fill="#FFE584" d="M287.011 92.064s-.687-12.25 8.938-13.752c9.627-1.502 12.121 4.043 15.851 6.416 3.729 2.373 11.883.232 14.634-6.416 2.751-6.648 9.626-15.008 17.648-14.192 8.022.816 9.397 5.788 11.69 6.37 2.292.58 11.548-.39 13.728 6.575 2.18 6.963-1.469 15-1.469 15h-81.02zM281.95 90.46c1.8-.09 2.084 1.605 2.084 1.605H276c0-.5 2.018-1.012 2.759-.983-1.224-.788-2.655-1.862-1.782-2.087.909-.234 1.982 1.058 2.631 2.009.148-.078.374-.179.687-.274-1.786-2.192-6.608-8.509-2.973-8.663 3.569-.151 3.712 6.124 3.638 8.504.286-.052.615-.092.99-.111z"/>
    <path fill="#F5C54E" d="M361 92.064s-.744-5.808-8.485-6.74c-.951-.114-1.831-.141-2.649-.1-.375-1.802-1.8-6.564-4.466-6.132-2.602.422 1.952 4.579 3.819 6.178-.625.06-1.213.16-1.768.29-1.347-.764-3.764-1.793-6.251-1.184-2.545.624 1.741 1.27 4.763 1.623-3.328 1.19-5.368 3.318-7.464 3.477-1.396.105-3.148-.16-5.072-.154.525-.594.969-1.256.425-1.336-.58-.086-.95.681-1.161 1.354-.212.01-.425.023-.64.041.488-1.083 1.095-2.787.264-3.114-.889-.35-.868 1.885-.786 3.168-.2.025-.402.055-.604.089-.166-.724-.603-2.212-1.458-1.8-.86.414.577 1.435 1.216 1.844-1.707.33-3.482.998-5.206 2.496H361z"/>
    <path fill="#F9F6EB" d="M346.839 90.654s.627 1.303-.594 1.398c-1.222.095-1.948-.381-2.245-.953 0 0 1.519.604 1.287-.128-.231-.73-.825-1.907-.825-1.907s1.287 2.226 1.929 2.12c.285-.048.448-.53.448-.53z"/>
    <path fill="#FFE584" d="M174.375 92.064s4.704-11.814-4.897-13.358c-9.602-1.543-12.09 4.155-15.81 6.594-3.72 2.439-11.853.238-14.596-6.594-2.744-6.832-9.602-15.423-17.604-14.585-8.001.839-9.373 5.949-11.659 6.546-2.287.597-12.809-3.103-16.229 5.644C91.406 83.467 96 92.064 96 92.064h78.375zM178.978 90.564c-1.8-.09-1.978 1.5-1.978 1.5h8c0-.5-2.09-.903-2.831-.874 1.224-.793 2.654-1.872 1.782-2.098-.91-.236-1.982 1.063-2.631 2.02-.148-.078-.374-.18-.687-.276 1.786-2.204 6.607-8.555 2.972-8.71-3.568-.152-3.711 6.157-3.637 8.55-.286-.052-.615-.092-.99-.112z"/>
    <path fill="#F5C54E" d="M114.765 92.065s.616-5.898 8.357-6.835c.951-.115 1.83-.143 2.649-.102.374-1.811 1.8-6.599 4.465-6.165 2.603.424-1.951 4.604-3.819 6.212.626.06 1.214.161 1.769.291 1.347-.767 3.763-1.802 6.251-1.19 2.545.627-1.741 1.278-4.763 1.632 3.328 1.197 5.368 3.336 7.464 3.496 1.396.106 3.148-.162 5.072-.154-.525-.598-.97-1.264-.425-1.344.579-.086.949.685 1.16 1.361.212.01.426.023.641.042-.488-1.09-1.095-2.803-.264-3.132.889-.351.868 1.896.785 3.186.201.025.402.055.604.09.166-.728.604-2.225 1.459-1.81.859.416-.577 1.443-1.217 1.854 1.707.33 3.477 1.06 5.201 2.567l-35.389.001z"/>
    <path fill="#FFE584" d="M90.39 92.065s-.616-5.898-8.358-6.835c-.95-.115-1.83-.143-2.649-.102-.374-1.811-1.8-6.599-4.465-6.165-2.602.424 1.951 4.604 3.819 6.212-.625.06-1.213.161-1.769.291-1.346-.767-3.763-1.802-6.25-1.19-2.545.627 1.74 1.278 4.762 1.632-3.328 1.197-5.367 3.336-7.464 3.496-1.396.106-3.148-.162-5.072-.154.526-.598.97-1.264.425-1.344-.58-.086-.95.685-1.16 1.361-.212.01-.426.023-.64.042.487-1.09 1.095-2.803.264-3.132-.89-.351-.868 1.896-.786 3.186-.2.025-.402.055-.604.09-.166-.728-.603-2.225-1.459-1.81-.859.416.578 1.443 1.217 1.854-1.707.33-3.477 1.06-5.201 2.567l35.39.001z"/>
    <path fill="#F9F6EB" d="M127.161 90.654s-.627 1.303.594 1.398c1.222.095 1.948-.381 2.245-.953 0 0-1.519.604-1.287-.128.231-.73.825-1.907.825-1.907s-1.287 2.226-1.929 2.12c-.285-.048-.448-.53-.448-.53zM82.161 90.654s-.627 1.303.594 1.398c1.222.095 1.948-.381 2.245-.953 0 0-1.519.604-1.287-.128.23-.73.825-1.907.825-1.907s-1.287 2.226-1.929 2.12c-.285-.048-.448-.53-.448-.53z"/>
    <path fill="#595959" d="M214.177 92.073c2.045 0 3.704-3.074 3.704-6.867s-1.659-6.868-3.704-6.868c-2.046 0-3.704 3.075-3.704 6.868s1.658 6.867 3.704 6.867z"/>
    <path fill="#595959" d="M214.176 92.073h3.701l-2.334-5.829-1.367 5.83z"/>
    <path fill="#595959" d="M217.59 92.073c2.045 0 3.704-3.074 3.704-6.867s-1.659-6.868-3.704-6.868c-2.046 0-3.704 3.075-3.704 6.868s1.658 6.867 3.704 6.867z"/>
    <path fill="#595959" d="M219.711 85.204c0 2.176-.949 3.937-2.122 3.937s-2.122-1.764-2.122-3.937c0-2.175.949-3.936 2.122-3.936s2.122 1.76 2.122 3.936z"/>
    <path fill="#595959" d="M217.591 78.338c-.615 0-1.197.28-1.707.773-.511-.493-1.093-.773-1.707-.773-2.045 0-3.704 3.074-3.704 6.868 0 3.793 1.659 6.867 3.704 6.867h3.704l-.009-.02c1.913-.266 3.423-3.23 3.423-6.847 0-3.794-1.659-6.868-3.704-6.868zM169.97 92.073c2.045 0 3.704-3.074 3.704-6.867s-1.659-6.868-3.704-6.868c-2.046 0-3.704 3.075-3.704 6.868s1.658 6.867 3.704 6.867z"/>
    <path fill="#595959" d="M169.971 92.073h3.701l-2.334-5.829-1.367 5.83z"/>
    <path fill="#595959" d="M173.386 92.073c2.045 0 3.704-3.074 3.704-6.867s-1.659-6.868-3.704-6.868c-2.046 0-3.704 3.075-3.704 6.868s1.658 6.867 3.704 6.867z"/>
    <path fill="#595959" d="M175.507 85.204c0 2.176-.949 3.937-2.122 3.937s-2.122-1.764-2.122-3.937c0-2.175.949-3.936 2.122-3.936s2.122 1.76 2.122 3.936z"/>
    <path fill="#595959" d="M173.384 78.338c-.615 0-1.197.28-1.707.773-.511-.493-1.093-.773-1.707-.773-2.045 0-3.704 3.074-3.704 6.868 0 3.793 1.659 6.867 3.704 6.867h3.704l-.009-.02c1.913-.266 3.423-3.23 3.423-6.847 0-3.794-1.659-6.868-3.704-6.868z"/>
    <path fill="#424242" d="M152.736 53.773c-.101-.075-.223-.117-.349-.117h-5.22c-.325 0-.591.266-.591.591V58.038h.591v-2.609c0-.325.266-.59.591-.59h4.629c.126 0 .248.041.349.116l5.85 4.315V58.09l-5.85-4.316z"/>
    <path fill="#424242" d="M147.435 56.466h-1.131c-.719 0-1.304.582-1.304 1.304v3.247c0 .72.585 1.305 1.304 1.305h1.131c.72 0 1.305-.585 1.305-1.305V57.77c0-.722-.582-1.304-1.305-1.304z"/>
    <path fill="#212121" d="M207.587 80.663l.941-2.31h-3.519c-.081-.01-.163-.015-.245-.015-2.078 0-3.764 3.074-3.764 6.868 0 3.793 1.686 6.867 3.764 6.867h3.764l-.944-2.319c.589-1.212.944-2.802.944-4.548.003-1.743-.355-3.331-.941-4.543z"/>
    <path fill="#424242" d="M208.237 92.073c2.079 0 3.764-3.074 3.764-6.867s-1.685-6.868-3.764-6.868c-2.078 0-3.763 3.075-3.763 6.868s1.685 6.867 3.763 6.867z"/>
    <path fill="#919191" d="M208.236 89.141c1.191 0 2.157-1.762 2.157-3.937 0-2.174-.966-3.936-2.157-3.936-1.19 0-2.156 1.762-2.156 3.936 0 2.175.966 3.937 2.156 3.937z"/>
    <path fill="#212121" d="M235.585 80.663l.94-2.31h-3.517c-.082-.01-.164-.015-.245-.015-2.077 0-3.763 3.074-3.763 6.868 0 3.793 1.686 6.867 3.763 6.867h3.762l-.943-2.319c.588-1.212.943-2.802.943-4.548 0-1.743-.355-3.331-.94-4.543z"/>
    <path fill="#424242" d="M236.238 92.073c2.078 0 3.763-3.074 3.763-6.867s-1.685-6.868-3.763-6.868-3.762 3.075-3.762 6.868 1.684 6.867 3.762 6.867z"/>
    <path fill="#919191" d="M236.232 89.141c1.19 0 2.155-1.762 2.155-3.937 0-2.174-.965-3.936-2.155-3.936-1.191 0-2.156 1.762-2.156 3.936 0 2.175.965 3.937 2.156 3.937z"/>
    <path fill="#196CE4" d="M246.436 49.953v35.61c0 1.463-1.185 2.648-2.647 2.648h-1.922c-1.03 0-1.851-.839-1.851-1.869v-.02c0-4.636-2-7.915-4.638-7.915-2.639 0-4.913 3.28-4.913 7.914v.021c0 1.03-.82 1.869-1.85 1.869h-14.81c-1.03 0-1.85-.839-1.85-1.869v-.02c0-4.636-1.993-7.915-4.632-7.915-2.638 0-4.919 3.28-4.919 7.914v.021c0 1.03-.821 1.869-1.851 1.869h-32.58V44.002h72.512c2.71 0 4.999 1.815 5.715 4.292.156.525.236 1.083.236 1.66z"/>
    <path fill="#257DFC" d="M189.176 50.607v34.664c0 1.623-1.184 2.937-2.647 2.937h-32.016c-1.463 0-2.651-1.317-2.651-2.937v-3.665c0-2.57.078-5.137.233-7.695.403-6.644 1.325-13.225 2.758-19.663.236-1.065.489-2.128.752-3.184.197-.794.403-1.585.618-2.373.024-.087.048-.173.074-.257.83-2.647 3.087-4.432 5.627-4.432h22.029v.048c2.281.307 4.164 2.044 4.895 4.381.212.68.328 1.412.328 2.176z"/>
    <path fill="#616161" d="M189.178 54.248v19.663H152.1c.403-6.644 1.325-13.225 2.757-19.663h34.321z"/>
    <path fill="#616161" d="M246.438 49.953V62.49h-43.97c-1.99 0-3.727 1.349-4.223 3.28l-.865 3.379c-.317 1.241-1.26 2.226-2.484 2.596l-5.718 2.17V54.248h2.343c.653 0 1.262-.343 1.602-.901l1.854-3.068c.746-1.23 2.08-1.985 3.519-1.985h47.71c.152.525.232 1.083.232 1.66z"/>
    <path fill="#1A4C95" d="M199.858 63.35v22.96h-9.187V73.34l4.223-1.6c1.224-.374 2.167-1.358 2.483-2.597l.866-3.379c.254-.997.836-1.835 1.615-2.414z"/>
    <path fill="#1A4C95" d="M198.63 70.763h-1.179v5.265h1.179v-5.265z"/>
    <path fill="#4D4E4E" d="M246.438 49.953V62.49h-43.97c-.967 0-1.874.32-2.608.869-.779.579-1.361 1.417-1.615 2.411l-.865 3.379c-.317 1.241-1.26 2.226-2.484 2.596l-4.369 1.657-1.349.51V54.248h2.343c.653 0 1.262-.343 1.602-.901l1.854-3.068c.648-1.072 1.743-1.782 2.967-1.946.182-.024.367-.04.555-.04h47.709c.15.526.23 1.084.23 1.66z"/>
    <path fill="#343536" d="M199.857 48.332v15.025c-.779.579-1.361 1.418-1.614 2.411l-.866 3.379c-.316 1.242-1.259 2.227-2.483 2.597l-4.37 1.656V54.248h.994c.654 0 1.263-.344 1.603-.902l1.854-3.068c.647-1.072 1.743-1.782 2.966-1.946h1.916z"/>
    <path fill="#212121" d="M183.248 53.779c-.101-.075-.224-.117-.349-.117h-5.22c-.325 0-.591.266-.591.591V58.044h.591v-2.609c0-.325.265-.591.591-.591h4.629c.125 0 .248.042.349.116l5.85 4.316v-1.182l-5.85-4.316z"/>
    <path fill="#212121" d="M177.947 56.47h-1.131c-.719 0-1.304.586-1.304 1.305v3.247c0 .72.585 1.305 1.304 1.305h1.131c.719 0 1.304-.585 1.304-1.305v-3.247c0-.722-.582-1.304-1.304-1.304z"/>
    <path fill="#FFE584" d="M160.448 78.342h-8.584v2.77h8.584v-2.77zM189.179 78.342h-9.515v2.77h9.515v-2.77z"/>
    <path fill="#6C6450" d="M144.401 80.683c-.57-.09-1.188.245-1.701.466-.057.025-.17.09-.284.148.203-.23.406-.467.61-.696.138-.155.276-.302.415-.458.146.025.455-.032.813.008.415.05.594.213.976-.106.358-.302.513-.826-.056-.916-.48-.074-.936.245-1.335.564.423-.474.814-.973 1.123-1.521 1.505-.769 2.221-3.01 2.001-4.58-.024-.148-.057-.311-.162-.418-.236-.229-.643-.065-.855.18-.301.344-.439.81-.488 1.268-.049.458-.016.924-.04 1.382-.017.385-.098.753-.196 1.105-.008.008-.008.008-.008.016-.236.589-.586 1.12-.984 1.611.146-.368.22-.9.244-1.112.073-.589 0-1.21-.301-1.718-.057-.098-.13-.196-.244-.204-.138-.017-.252.098-.326.22-.26.41-.366.925-.276 1.4.114.613.439 1.177.569 1.782h.025c-.252.287-.505.557-.765.827.106-.507.098-1.113.041-1.39-.041-.222-.114-.443-.277-.606-.154-.164-.415-.237-.61-.131-.114.057-.195.172-.244.294-.155.385-.016.826.122 1.22.138.392.26.8.415 1.193-.033.033-.065.066-.09.099-.439.482-.878.973-1.301 1.464.138-.344.244-.696.325-1.055.163-.729.187-1.49-.032-2.193-.09-.278-.22-.556-.44-.744-.089-.074-.211-.14-.317-.09-.057.025-.106.074-.138.13-.236.328-.261.762-.212 1.162.081.63.326 1.22.496 1.833.098.351.204.752.188 1.129-.44.515-.871 1.038-1.286 1.57.285-.63.431-1.472.505-2.061.073-.581.008-1.252-.448-1.62-.065-.049-.138-.098-.228-.114-.26-.05-.496.188-.585.433-.114.32-.074.679.016 1.006.097.327.244.638.342.966.178.58.178 1.145.122 1.742-.318.417-.627.842-.928 1.268.081-.328.114-.671.13-.851.049-.589-.024-1.194-.219-1.75-.065-.189-.179-.393-.366-.442-.171-.041-.342.065-.464.188-.317.31-.472.785-.407 1.227.049.286.179.548.309.81.139.27.269.531.407.801.106.205.171.417.195.638-.325.483-.634.974-.935 1.464.065-.237.114-.474.138-.711.065-.54.008-1.105-.244-1.587-.09-.164-.212-.327-.391-.376-.252-.066-.52.139-.593.392-.074.254-.009.532.105.77.098.228.228.44.383.629.114.14.236.262.309.425.089.197.097.426.106.638v.14c-.228.392-.456.793-.676 1.194.017-.491-.138-1.015-.366-1.415-.146-.246-.398-.5-.675-.426-.089.025-.163.082-.22.147-.203.254-.122.647.074.917.195.27.471.458.683.711.122.148.171.385.268.532-.325.654-.618 1.317-.829 2.004-.065.205.203.294.301.115.252-.491.496-.982.74-1.473.244.123 1.285.327 1.44.368.252.066.569.033.716-.188.138-.213.049-.523-.147-.679-.195-.163-.463-.204-.716-.196-.138.008-.764.147-1.114.343.252-.499.512-1.006.789-1.496.163-.009.325-.025.496 0 .261.049.505.171.765.212.26.041.569-.024.7-.253.154-.278-.057-.647-.35-.761-.293-.115-.627-.033-.919.09-.09.04-.228.09-.358.155l.073-.122c.13-.213.268-.426.398-.638.342.073.822-.041 1.188-.025.342.008.7.04 1.009-.106.309-.147.529-.54.358-.843-.155-.27-.529-.31-.838-.245-.325.065-.911.302-1.318.613.301-.441.602-.883.919-1.309.594-.073 1.367.393 2.002.164.26-.09.61-.392.48-.72-.106-.261-.545-.278-.773-.302-.391-.033-.879.081-1.294.302.122-.171.252-.335.383-.499.162-.212.333-.425.496-.638.228-.016.618-.024.984.041.472.074.96.262 1.334-.172.342-.392.505-1.218-.219-1.177-.407.024-1.025.27-1.53.597.334-.401.667-.802 1.001-1.195.358.041.659-.016 1.171.156.415.139.912.532 1.294.18.415-.41.195-1.03-.374-1.12z"/>
    <path fill="#6C6450" d="M138.604 77.897c-.553.164-.968.736-1.334 1.153-.04.041-.114.148-.195.262.081-.294.171-.597.252-.891.057-.197.122-.393.179-.59.147-.04.399-.22.74-.343.399-.14.627-.065.838-.515.196-.426.114-.966-.439-.802-.472.14-.74.622-.96 1.088.179-.614.326-1.227.358-1.857 1.033-1.341.724-3.68-.138-5.006-.082-.13-.179-.253-.326-.31-.309-.107-.61.212-.699.531-.13.442-.049.924.097 1.358.155.433.375.842.554 1.268.146.36.227.72.292 1.08v.024c.041.638-.048 1.26-.203 1.881-.024-.392-.187-.908-.252-1.112-.187-.564-.513-1.096-1.009-1.423-.089-.066-.203-.115-.309-.082-.13.04-.187.196-.203.335-.066.483.065.99.341 1.383.366.507.895.875 1.277 1.366.009 0 .017-.009.017-.017-.106.36-.22.72-.342 1.08-.122-.507-.39-1.047-.553-1.276-.13-.18-.293-.352-.505-.425-.211-.074-.471-.033-.61.147-.081.106-.105.245-.097.376.024.417.333.753.626 1.055.293.295.578.614.887.9-.016.04-.025.09-.041.13-.195.622-.374 1.252-.553 1.882-.024-.368-.073-.736-.155-1.096-.162-.728-.471-1.431-.968-1.963-.195-.213-.439-.409-.716-.483-.113-.032-.252-.032-.325.058-.041.049-.065.114-.073.171-.073.393.089.802.301 1.137.341.54.813.966 1.228 1.44.236.27.505.589.651.94-.179.655-.342 1.31-.496 1.972-.008-.695-.236-1.513-.423-2.086-.187-.556-.521-1.137-1.09-1.268-.082-.016-.171-.024-.253-.008-.26.066-.374.385-.341.646.032.344.219.647.447.9.228.254.488.475.724.728.415.45.651.965.846 1.522-.114.515-.211 1.03-.301 1.546-.065-.328-.179-.663-.244-.827-.203-.556-.529-1.063-.943-1.48-.139-.14-.326-.278-.521-.237-.171.04-.277.204-.342.368-.154.417-.097.908.155 1.284.162.237.39.417.618.597.236.18.472.368.708.548.179.14.333.303.447.49-.089.573-.162 1.154-.219 1.727-.041-.237-.098-.475-.179-.704-.171-.515-.464-1.006-.895-1.333-.147-.114-.334-.204-.513-.172-.26.05-.407.352-.374.614.041.261.22.482.423.654.187.164.391.295.618.401.155.074.326.139.464.245.171.14.269.336.366.532.016.04.041.082.057.123-.041.45-.081.908-.098 1.374-.195-.45-.553-.859-.935-1.12-.236-.164-.578-.279-.789-.09-.065.057-.114.138-.139.228-.081.32.171.638.456.794.285.155.618.213.919.343.171.082.318.27.472.368-.016.728.008 1.456.106 2.168.032.205.309.18.317-.024.016-.549.033-1.105.041-1.653.276 0 1.293-.253 1.456-.286.26-.05.529-.213.561-.475.033-.253-.179-.49-.423-.556-.244-.065-.504.017-.732.14-.122.065-.626.457-.862.785.016-.565.041-1.13.081-1.694.139-.081.285-.163.448-.212.252-.066.528-.066.781-.14.252-.073.504-.27.52-.531.017-.319-.325-.556-.642-.532-.318.025-.578.237-.789.475-.066.073-.163.18-.261.294.008-.049.008-.09.016-.139.025-.253.057-.499.09-.752.342-.082.732-.393 1.058-.54.309-.14.65-.27.862-.532.22-.262.252-.72-.033-.916-.252-.18-.61-.05-.862.13-.268.197-.7.663-.936 1.121.082-.531.171-1.055.269-1.578.504-.32 1.399-.237 1.879-.72.195-.196.391-.614.13-.859-.203-.188-.61-.016-.829.066-.375.139-.757.45-1.042.826.041-.205.082-.41.13-.622.057-.262.114-.532.179-.794.196-.114.554-.286.903-.384.456-.13.977-.18 1.139-.728.147-.507-.065-1.317-.699-.965-.358.196-.814.687-1.123 1.202.13-.507.26-1.006.399-1.513.341-.115.594-.303 1.122-.36.431-.049 1.05.09 1.245-.392.252-.54-.212-1.007-.757-.843zM279.655 80.797c.581-.091 1.212.25 1.735.474.059.024.175.09.291.149-.207-.233-.415-.473-.623-.706-.141-.157-.282-.307-.423-.465-.149.025-.465-.033-.83.009-.424.05-.606.216-.997-.108-.365-.308-.523-.839.059-.93.489-.075.954.249 1.361.573-.432-.482-.83-.988-1.146-1.544-1.535-.78-2.266-3.056-2.042-4.65.025-.15.058-.315.166-.423.241-.233.656-.067.872.182.307.35.448.822.498 1.287.05.465.017.938.042 1.403.016.39.099.764.199 1.121.008.008.008.008.008.017.241.598.598 1.137 1.005 1.635-.15-.373-.224-.913-.249-1.129-.075-.597 0-1.228.307-1.743.058-.1.133-.2.249-.208.141-.016.257.1.332.224.266.415.374.938.282 1.42-.116.623-.448 1.196-.581 1.81h-.025c.258.29.515.565.781.839-.108-.515-.1-1.13-.042-1.412.042-.224.116-.448.282-.614.158-.166.424-.241.623-.133.116.058.199.174.249.299.158.39.017.838-.124 1.237-.142.398-.266.813-.424 1.212.033.033.067.066.091.1.449.49.897.987 1.329 1.486-.141-.349-.249-.706-.332-1.071-.166-.74-.191-1.511.033-2.225.091-.283.224-.565.448-.756.092-.075.216-.141.324-.091.058.025.108.075.141.133.241.332.266.772.216 1.179-.083.639-.332 1.237-.506 1.86-.1.356-.208.763-.191 1.145.448.523.888 1.054 1.311 1.594-.29-.64-.44-1.494-.514-2.092-.075-.59-.009-1.27.456-1.644.067-.05.141-.1.233-.116.265-.05.506.19.598.44.116.324.074.689-.017 1.021-.1.332-.249.648-.349.98-.182.59-.182 1.162-.124 1.768.323.423.639.855.946 1.287-.083-.332-.116-.68-.133-.864-.049-.597.025-1.212.224-1.776.067-.191.183-.399.374-.448.174-.042.349.066.473.19.324.316.482.797.415 1.246-.049.29-.182.556-.315.822-.141.274-.274.54-.415.813-.108.208-.175.424-.199.648.332.49.647.988.954 1.486-.066-.24-.116-.481-.141-.722-.066-.548-.008-1.121.249-1.61.092-.167.216-.333.399-.383.257-.066.531.141.606.399.075.257.008.54-.108.78-.1.233-.233.448-.39.64-.117.14-.241.265-.316.431-.091.2-.099.432-.108.648v.14c.233.4.465.806.689 1.213-.016-.498.142-1.03.374-1.436.149-.25.407-.507.689-.432.091.025.166.083.224.15.208.257.125.655-.074.93-.2.273-.482.464-.698.721-.124.15-.174.39-.274.54.332.664.631 1.337.847 2.034.066.208-.208.3-.307.116-.258-.498-.507-.996-.756-1.494-.249.125-1.311.332-1.469.374-.258.066-.581.033-.731-.191-.141-.216-.05-.532.15-.69.199-.165.473-.207.73-.199.141.009.781.15 1.138.35-.258-.507-.523-1.022-.806-1.52-.166-.009-.332-.025-.506 0-.266.05-.515.174-.781.216-.265.041-.581-.025-.714-.258-.157-.282.059-.656.357-.772.299-.116.64-.033.939.091.091.042.232.092.365.158l-.075-.124c-.133-.216-.274-.432-.407-.648-.348.075-.838-.041-1.212-.025-.348.008-.714.042-1.029-.108-.316-.15-.54-.548-.366-.855.158-.274.54-.315.856-.249.332.066.929.307 1.345.623-.308-.449-.615-.897-.939-1.329-.606-.074-1.394.399-2.042.166-.266-.091-.623-.398-.49-.73.108-.266.556-.283.789-.307.398-.034.897.083 1.32.307-.125-.175-.257-.34-.39-.507-.166-.216-.341-.431-.507-.647-.232-.017-.631-.025-1.004.041-.482.075-.98.266-1.362-.174-.348-.399-.515-1.237.224-1.196.415.025 1.046.274 1.561.606-.34-.406-.681-.813-1.021-1.212-.365.042-.672-.016-1.196.158-.423.141-.929.54-1.32.183-.423-.415-.199-1.046.382-1.138z"/>
    <path fill="#6C6450" d="M285.406 78.014c.564.166.987.748 1.361 1.17.042.043.116.15.199.267-.083-.3-.174-.606-.257-.905-.058-.2-.125-.399-.183-.598-.149-.042-.406-.224-.755-.349-.407-.14-.639-.066-.855-.523-.2-.432-.117-.98.448-.813.482.14.756.63.98 1.104-.183-.623-.332-1.246-.366-1.885-1.054-1.361-.739-3.736.142-5.08.083-.134.182-.258.332-.316.315-.108.622.216.714.54.132.448.049.937-.1 1.377-.158.44-.382.856-.565 1.287-.149.366-.232.73-.298 1.096v.025c-.042.648.049 1.279.207 1.91.025-.399.191-.922.257-1.13.191-.572.524-1.112 1.03-1.444.091-.067.208-.116.315-.083.133.041.191.2.208.34.066.49-.066 1.005-.349 1.403-.373.515-.913.889-1.303 1.387-.008 0-.017-.008-.017-.017.108.366.224.73.349 1.096.124-.515.398-1.063.564-1.295.133-.183.299-.357.515-.432.216-.074.482-.033.623.15.083.108.108.249.1.382-.025.423-.341.764-.64 1.07-.299.3-.589.623-.905.914.017.041.025.091.042.133.199.63.382 1.27.564 1.91.025-.374.075-.748.158-1.113.166-.74.482-1.453.988-1.993.199-.216.448-.415.731-.49.116-.033.257-.033.332.059.041.05.066.116.075.174.074.398-.092.814-.308 1.154-.348.548-.83.98-1.253 1.461-.241.274-.515.598-.665.955.183.664.349 1.328.507 2 .008-.705.241-1.535.432-2.116.191-.565.531-1.154 1.112-1.287.083-.017.175-.025.258-.009.265.067.381.39.348.656-.033.349-.224.656-.456.914-.233.257-.499.481-.739.739-.424.456-.664.98-.864 1.544.116.523.216 1.046.307 1.569.067-.332.183-.673.25-.839.207-.564.539-1.079.963-1.502.141-.142.332-.283.531-.241.174.041.282.207.349.373.157.424.099.922-.158 1.304-.166.24-.399.423-.631.606-.241.183-.482.374-.722.556-.183.141-.341.307-.457.498.091.581.166 1.171.224 1.752.042-.24.1-.481.183-.714.174-.523.473-1.021.913-1.353.149-.116.34-.208.523-.174.266.05.415.356.382.622-.042.266-.224.49-.432.664-.191.166-.398.3-.631.407-.157.075-.332.141-.473.25-.174.14-.274.34-.374.539-.016.041-.041.083-.058.124.042.457.083.922.1 1.395.199-.456.565-.871.955-1.137.241-.166.589-.283.805-.092.066.059.116.142.141.233.083.324-.174.648-.465.805-.29.158-.631.216-.938.349-.174.083-.324.274-.481.374.016.739-.009 1.477-.108 2.2-.034.207-.316.182-.324-.025-.017-.556-.033-1.121-.042-1.677-.282 0-1.32-.258-1.486-.29-.265-.05-.539-.217-.573-.482-.033-.258.183-.499.432-.565.249-.066.515.017.747.141.125.067.64.465.88.797-.016-.573-.041-1.145-.083-1.718-.141-.083-.29-.166-.456-.216-.258-.067-.54-.067-.797-.141-.258-.075-.515-.274-.532-.54-.016-.324.332-.565.656-.54.324.025.59.241.806.482.066.075.166.182.265.299-.008-.05-.008-.092-.016-.141-.025-.258-.059-.507-.092-.764-.348-.083-.747-.399-1.079-.548-.316-.141-.664-.274-.88-.54-.224-.266-.257-.73.033-.93.258-.182.623-.05.88.133.274.2.714.673.955 1.138-.083-.54-.174-1.071-.274-1.603-.515-.324-1.428-.24-1.918-.73-.199-.2-.398-.623-.133-.872.208-.191.623-.017.847.066.382.141.772.457 1.063.839-.042-.208-.083-.415-.133-.631-.058-.266-.116-.54-.183-.805-.199-.117-.564-.291-.921-.39-.465-.134-.996-.183-1.163-.74-.149-.514.067-1.336.714-.98.366.2.831.698 1.146 1.221-.133-.514-.265-1.021-.407-1.536-.348-.116-.606-.307-1.145-.365-.44-.05-1.071.091-1.271-.398-.257-.549.216-1.022.773-.856z"/>
    <path fill="#EEE" d="M326.477 37.18c1.066-4.19 3.45-.198 4.977 1.908 3.046 4.977 6.214 3.724 7.046 2.477 1-1.5-2.5-5.193-5.064-9.24-1.927-2.852-3.591-6.715-5.664-9.568-1.919-2.642-2.573-4.672-4.707-7.178-.732-.86-1.235-2.65-2.143-3.352-2.048-1.588-2.322-.444-4.32.05-3.233.799-5.199-1.814-8.506-1.081-2.075.46-1.51.822-3.79.513-2.327-.317-2.009-.25-4.061.34-3.399.976-5.098-1.858-8.01 1.146s1.688 2.384-12.206 19.586c-2.652 3.284-3.921 4.738-5.001 6.784-.528 1-2.027 2.5-1.029 3.5 1.095 1.096 2.24.421 2.627 0 1.974-1.946 3.343-3.108 5.607-4.791 2.603-1.938 5.854-1 7.012 2.38.634 1.85 2.842 6.955 5.794 7.111 3.056.163 3.567-2.756 3.85-4.377.525-3.006 1.135-6.028 2.492-8.806 1.18-2.414 2.293-4.213 6.414-3.768 3.383.364 3.852 3.233 4.508 5.558 1.385 4.904.852 15.019 8.619 14.193 2.848.039 4.126-3.005 4.265-5.414.152-2.619.644-5.432 1.29-7.972z"/>
    <path stroke="#D4D4D4" stroke-linecap="round" d="M295 19.064c-.222 1.019-1.5 3.75-3 5M317 19.064c.222 1.019 1.5 3.75 3 5M302 19.064v5M310 19.064v5"/>
</svg>
