<?xml version="1.0" encoding="UTF-8"?>
<!DOCTYPE svg PUBLIC "-//W3C//DTD SVG 1.1//EN" "http://www.w3.org/Graphics/SVG/1.1/DTD/svg11.dtd">
<svg xmlns="http://www.w3.org/2000/svg" version="1.1" width="500px" height="450px" style="shape-rendering:geometricPrecision; text-rendering:geometricPrecision; image-rendering:optimizeQuality; fill-rule:evenodd; clip-rule:evenodd" xmlns:xlink="http://www.w3.org/1999/xlink">
<g><path style="opacity:0.987" fill="#6495ed" d="M 420.5,342.5 C 418.15,337.8 415.817,333.133 413.5,328.5C 395.827,329.826 379.327,329.826 364,328.5C 360.667,329.167 357.333,329.833 354,330.5C 336.054,330.558 317.721,330.558 299,330.5C 293.667,331.167 288.333,331.833 283,332.5C 273.333,332.167 263.667,331.833 254,331.5C 248.667,332.167 243.333,332.833 238,333.5C 232.154,333.657 226.154,333.324 220,332.5C 210.606,333.51 201.939,334.177 194,334.5C 193,333.833 192,333.167 191,332.5C 186.153,324.458 181.319,316.958 176.5,310C 177.333,309.167 178.167,308.333 179,307.5C 182.522,307.854 185.689,308.188 188.5,308.5C 198.03,307.846 207.53,307.179 217,306.5C 224.611,306.968 232.944,307.301 242,307.5C 244.667,306.833 247.333,306.167 250,305.5C 265.527,305.986 281.86,305.986 299,305.5C 299.5,305 300,304.5 300.5,304C 269.386,289.94 257.219,266.106 264,232.5C 275.207,203.475 296.373,189.975 327.5,192C 355.908,198.243 372.575,215.743 377.5,244.5C 384.476,245.664 391.476,245.831 398.5,245C 403.05,242.117 406.55,238.284 409,233.5C 409.831,163.596 409.665,93.7631 408.5,24C 323.526,22.3523 238.526,22.0189 153.5,23C 150.087,24.0774 147.587,26.2441 146,29.5C 137.178,60.4556 128.511,91.4556 120,122.5C 118.833,127.667 115.667,130.833 110.5,132C 81.1686,132.5 51.8352,132.667 22.5,132.5C 22.6667,170.168 22.5,207.835 22,245.5C 15.6667,253.5 9.33333,253.5 3,245.5C 2.33333,204.5 2.33333,163.5 3,122.5C 4.6046,116.562 8.43793,113.062 14.5,112C 43.4981,111.5 72.4981,111.333 101.5,111.5C 109.529,81.0525 118.029,50.7191 127,20.5C 130.5,13 136,7.5 143.5,4C 232.123,2.34368 320.79,2.01035 409.5,3C 418.205,3.7671 424.705,7.93376 429,15.5C 429.667,90.1667 429.667,164.833 429,239.5C 418.234,263.214 400.234,271.547 375,264.5C 369.848,282.987 358.348,295.82 340.5,303C 341,303.5 341.5,304 342,304.5C 351.3,304.196 361.966,303.53 374,302.5C 380.361,302.87 386.361,303.203 392,303.5C 397.333,302.833 402.667,302.167 408,301.5C 414.256,302.324 420.256,302.324 426,301.5C 426.75,302.126 427.584,302.626 428.5,303C 451.891,341.673 474.224,379.34 495.5,416C 485.444,417.624 475.944,418.457 467,418.5C 451.285,392.166 435.785,366.833 420.5,342.5 Z M 311.5,212.5 C 325.39,210.63 337.223,214.63 347,224.5C 360.368,243.587 358.868,261.42 342.5,278C 329.953,286.37 316.619,287.704 302.5,282C 282.031,268.35 277.531,250.517 289,228.5C 294.891,220.813 302.391,215.48 311.5,212.5 Z"/></g>
<g><path style="opacity:0.97" fill="#6394ec" d="M 196.5,46.5 C 247.168,46.3333 297.834,46.5 348.5,47C 359.743,48.5378 369.243,53.3711 377,61.5C 378.562,63.9573 379.562,66.624 380,69.5C 380.943,86.8864 380.61,104.22 379,121.5C 373.216,133.948 363.716,142.115 350.5,146C 340.5,146.667 330.5,146.667 320.5,146C 312.931,140.329 312.598,134.329 319.5,128C 327.731,126.727 336.064,126.06 344.5,126C 350.476,124.016 355.31,120.516 359,115.5C 359.833,101.155 359.666,86.8217 358.5,72.5C 355.95,71.0584 353.284,69.8917 350.5,69C 299.545,67.3515 248.545,67.0182 197.5,68C 193.725,69.4421 190.892,71.9421 189,75.5C 184.345,91.1217 179.845,106.788 175.5,122.5C 175.68,123.554 176.013,124.554 176.5,125.5C 209.162,126.333 241.828,126.833 274.5,127C 280.109,130.277 281.942,135.11 280,141.5C 278.5,143 277,144.5 275.5,146C 239.773,146.98 204.106,146.647 168.5,145C 159.58,140.228 154.913,132.728 154.5,122.5C 158.821,104.37 163.654,86.3697 169,68.5C 174.357,56.2571 183.523,48.9238 196.5,46.5 Z"/></g>
<g><path style="opacity:0.988" fill="#6394ed" d="M 92.5,191.5 C 124.774,190.215 145.941,204.882 156,235.5C 156.61,238.827 157.11,242.161 157.5,245.5C 179.836,245.333 202.169,245.5 224.5,246C 231.283,249.401 233.116,254.567 230,261.5C 228.363,263.81 226.196,265.31 223.5,266C 200.502,266.5 177.502,266.667 154.5,266.5C 147.152,288.346 132.152,301.513 109.5,306C 79.9018,309.12 58.7352,297.287 46,270.5C 36.1077,235.805 47.2744,210.639 79.5,195C 83.9191,193.648 88.2524,192.481 92.5,191.5 Z M 92.5,212.5 C 122.641,211.807 137.141,226.474 136,256.5C 129.43,278.711 114.597,288.211 91.5,285C 70.034,277.921 60.8673,263.088 64,240.5C 68.0885,225.578 77.5885,216.244 92.5,212.5 Z"/></g>
<g><path style="opacity:0.983" fill="#6395ed" d="M 250.5,338.5 C 266.17,338.333 281.837,338.5 297.5,339C 296.41,354.442 293.244,369.609 288,384.5C 287.215,386.286 286.049,387.786 284.5,389C 279.953,390.545 275.287,390.879 270.5,390C 269.874,389.25 269.374,388.416 269,387.5C 269.842,377.107 271.342,366.774 273.5,356.5C 262.495,356.667 251.495,356.5 240.5,356C 236.744,350.29 237.411,344.956 242.5,340C 245.365,339.817 248.031,339.317 250.5,338.5 Z"/></g>
<g><path style="opacity:0.984" fill="#6395ed" d="M 116.5,339.5 C 120.712,339.078 124.712,339.744 128.5,341.5C 128.833,343 129.167,344.5 129.5,346C 124.959,374.502 117.626,402.169 107.5,429C 97.3654,434.014 92.5321,431.181 93,420.5C 94.1873,413.752 95.6873,407.085 97.5,400.5C 97,400.167 96.5,399.833 96,399.5C 91.539,400.247 87.039,400.747 82.5,401C 70.1129,410.343 56.4462,412.676 41.5,408C 33.4726,404.291 29.4726,397.958 29.5,389C 33.7241,357.722 51.3908,344.722 82.5,350C 85.7323,351.23 88.3989,353.23 90.5,356C 95.8333,356.667 101.167,356.667 106.5,356C 107.765,351.445 109.265,346.945 111,342.5C 112.876,341.391 114.709,340.391 116.5,339.5 Z M 63.5,365.5 C 70.73,364.564 74.3966,367.731 74.5,375C 73.9954,386.773 67.9954,392.773 56.5,393C 52.9563,391.461 50.9563,388.794 50.5,385C 51.0199,375.753 55.3532,369.253 63.5,365.5 Z M 95.5,372.5 C 98.1873,372.336 100.854,372.503 103.5,373C 102.626,376.366 101.626,379.7 100.5,383C 98.0982,383.814 95.7649,383.647 93.5,382.5C 94.2598,379.179 94.9264,375.846 95.5,372.5 Z"/></g>
<g><path style="opacity:0.975" fill="#6495ed" d="M 163.5,331.5 C 174.2,330.115 177.533,334.281 173.5,344C 179.5,344 185.5,344 191.5,344C 192.333,344.833 193.167,345.667 194,346.5C 195.698,341.296 199.364,338.962 205,339.5C 209.093,339.234 211.926,340.901 213.5,344.5C 212.244,349.114 211.244,353.781 210.5,358.5C 211.833,358.5 213.167,358.5 214.5,358.5C 214.925,352.542 216.425,346.876 219,341.5C 224.361,338.895 229.694,338.895 235,341.5C 235.476,347.275 234.81,352.942 233,358.5C 230.013,372.286 226.18,385.786 221.5,399C 216.467,402.491 211.633,402.325 207,398.5C 207.318,390.736 208.485,383.069 210.5,375.5C 209.167,375.5 207.833,375.5 206.5,375.5C 205.884,382.306 203.884,388.64 200.5,394.5C 195.793,397.082 191.126,397.082 186.5,394.5C 185.937,393.061 185.603,391.561 185.5,390C 187.605,378.818 189.439,367.651 191,356.5C 188.404,358.02 185.571,358.853 182.5,359C 188.775,378.77 181.775,391.77 161.5,398C 155.5,398.667 149.5,398.667 143.5,398C 131.622,392.717 128.122,383.884 133,371.5C 134.302,367.726 136.469,364.559 139.5,362C 136.574,361.782 133.74,361.282 131,360.5C 129.055,354.064 130.888,349.231 136.5,346C 141.823,345.501 147.156,345.334 152.5,345.5C 151.934,337.227 155.601,332.561 163.5,331.5 Z M 159.5,360.5 C 166.969,361.082 169.802,365.082 168,372.5C 166.651,379.182 162.651,383.182 156,384.5C 152.086,383.582 149.919,381.082 149.5,377C 149.859,369.518 153.193,364.018 159.5,360.5 Z"/></g>
<g><path style="opacity:0.98" fill="#6395ed" d="M 420.5,342.5 C 419.221,352.228 417.555,361.895 415.5,371.5C 425.155,370.498 428.322,374.498 425,383.5C 424.167,385.667 422.667,387.167 420.5,388C 417.183,388.498 413.85,388.665 410.5,388.5C 407.963,400.648 404.796,412.648 401,424.5C 397.157,431.115 391.657,432.948 384.5,430C 383.57,428.806 382.903,427.473 382.5,426C 387.957,398.338 394.124,370.838 401,343.5C 407.314,338.645 413.814,338.312 420.5,342.5 Z"/></g>
<g><path style="opacity:0.987" fill="#6395ed" d="M 310.5,339.5 C 313.518,339.335 316.518,339.502 319.5,340C 321.329,340.273 322.829,341.107 324,342.5C 323.966,347.186 323.466,351.852 322.5,356.5C 325.883,356.257 329.049,356.924 332,358.5C 332.333,355.833 332.667,353.167 333,350.5C 333.685,347.943 335.185,346.109 337.5,345C 355.708,343.274 373.875,343.107 392,344.5C 388.736,368.561 383.403,392.228 376,415.5C 375.167,417.667 373.667,419.167 371.5,420C 367.833,420.667 364.167,420.667 360.5,420C 358.765,418.818 357.765,417.151 357.5,415C 358.917,407.246 360.584,399.579 362.5,392C 351.534,392.829 340.534,393.163 329.5,393C 326.581,387.617 327.248,382.617 331.5,378C 342.844,376.578 354.177,375.245 365.5,374C 366.731,369.909 367.731,365.743 368.5,361.5C 357.115,361.812 345.782,361.478 334.5,360.5C 333.656,364.201 332.323,367.701 330.5,371C 326.654,372.669 322.654,373.836 318.5,374.5C 317.368,379.737 315.368,384.57 312.5,389C 307.924,390.476 303.257,390.81 298.5,390C 297.128,388.758 296.128,387.258 295.5,385.5C 298.061,373.193 300.561,360.86 303,348.5C 303.646,343.834 306.146,340.834 310.5,339.5 Z"/></g>
<g><path style="opacity:0.987" fill="#6495ed" d="M 293.5,392.5 C 299.425,392.192 305.259,392.525 311,393.5C 310.123,402.681 308.123,411.681 305,420.5C 304.097,421.701 302.931,422.535 301.5,423C 288.492,423.516 275.492,424.182 262.5,425C 261.663,426.011 261.33,427.178 261.5,428.5C 275.486,427.491 289.486,427.324 303.5,428C 304.766,431.509 304.599,435.009 303,438.5C 301.509,440.004 299.676,440.837 297.5,441C 282.325,441.298 267.159,441.798 252,442.5C 248.41,442.528 244.91,442.028 241.5,441C 240.128,439.758 239.128,438.258 238.5,436.5C 239.468,428.824 241.135,421.324 243.5,414C 258.21,413.226 272.877,412.059 287.5,410.5C 287.833,409.833 288.167,409.167 288.5,408.5C 273.833,407.584 259.167,407.417 244.5,408C 241.916,403.343 242.583,399.009 246.5,395C 262.33,394.244 277.997,393.411 293.5,392.5 Z"/></g>
<g><path style="opacity:0.98" fill="#6495ed" d="M 184.5,397.5 C 211.339,395.477 219.839,406.81 210,431.5C 198.691,443.38 184.858,447.88 168.5,445C 156.348,442.85 151.181,435.684 153,423.5C 154.747,414.512 159.581,407.679 167.5,403C 173.038,400.374 178.705,398.54 184.5,397.5 Z M 184.5,411.5 C 193.61,411.772 196.443,416.105 193,424.5C 189.373,430.158 184.207,432.325 177.5,431C 172.913,428.237 171.746,424.403 174,419.5C 176.271,415.044 179.771,412.378 184.5,411.5 Z"/></g>
</svg>
