<svg xmlns="http://www.w3.org/2000/svg" width="97" height="35" fill="none" viewBox="0 0 97 35">
    <rect width="6" height="8" x="67.375" y="11" fill="#0D6FFC" rx="1"/>
    <rect width="10" height="3" x="75.375" y="11" fill="#494949" rx="1"/>
    <rect width="15" height="3" x="75.375" y="16" fill="#494949" rx="1"/>
    <rect width="30" height="21" x="64" y="6.5" stroke="#494949" stroke-width="3" rx="1.5"/>
    <path fill="#494949" fill-rule="evenodd" d="M12.43 8.455c0 4.117 3.338 7.455 7.456 7.455 4.117 0 7.454-3.338 7.454-7.455S24.003 1 19.886 1c-4.118 0-7.455 3.338-7.455 7.455zm11.928 0c0 2.47-2.002 4.473-4.473 4.473-2.47 0-4.472-2.003-4.472-4.473 0-2.47 2.002-4.473 4.473-4.473 2.47 0 4.473 2.003 4.473 4.473zM15.416 17.4c1.088.766 1.981 1.79 2.59 2.982h9.847c1.647 0 2.982 1.335 2.982 2.982v5.963c0 .824.668 1.492 1.491 1.492.824 0 1.491-.668 1.491-1.492v-5.963c0-3.294-2.67-5.964-5.964-5.964H15.416z" clip-rule="evenodd"/>
    <circle cx="10.7" cy="24.11" r="8.2" stroke="#0D6FFC" stroke-width="2.982"/>
    <path stroke="#0D6FFC" stroke-linejoin="round" stroke-width="2.982" d="M14.801 22.744c-2.534 3.092-3.469 4.883-4.1 8.2-.706-3.671-1.606-5.466-4.1-8.2M2.5 24.109c6.484-1.932 10.072-1.99 16.4 0"/>
    <rect width="3" height="11" x="53.5" y="15" fill="#494949" rx="1.5" transform="rotate(90 53.5 15)"/>
    <rect width="3" height="11" x="46.5" y="11" fill="#0D6FFC" rx="1.5"/>
</svg>
